<svg width="24" height="24" viewBox="0 0 24 24" fill="none" xmlns="http://www.w3.org/2000/svg">
<path d="M16.19 2H7.81C4.17 2 2 4.17 2 7.81V16.18C2 19.83 4.17 22 7.81 22H16.18C19.82 22 21.99 19.83 21.99 16.19V7.81C22 4.17 19.83 2 16.19 2ZM18.53 12.53L14.24 16.82C14.09 16.97 13.9 17.04 13.71 17.04C13.52 17.04 13.33 16.97 13.18 16.82C12.89 16.53 12.89 16.05 13.18 15.76L16.19 12.75H6C5.59 12.75 5.25 12.41 5.25 12C5.25 11.59 5.59 11.25 6 11.25H16.19L13.18 8.24C12.89 7.95 12.89 7.47 13.18 7.18C13.47 6.89 13.95 6.89 14.24 7.18L18.53 11.47C18.67 11.61 18.75 11.8 18.75 12C18.75 12.2 18.67 12.39 18.53 12.53Z" fill="black"/>
<path d="M13.025 17.6833C12.8667 17.6833 12.7083 17.625 12.5833 17.5C12.3417 17.2583 12.3417 16.8583 12.5833 16.6167L17.2 12L12.5833 7.38334C12.3417 7.14167 12.3417 6.74167 12.5833 6.50001C12.825 6.25834 13.225 6.25834 13.4667 6.50001L18.525 11.5583C18.7667 11.8 18.7667 12.2 18.525 12.4417L13.4667 17.5C13.3417 17.625 13.1834 17.6833 13.025 17.6833Z" fill="white"/>
<path d="M17.7598 12.625H5.82366C5.53288 12.625 5.29175 12.3417 5.29175 12C5.29175 11.6583 5.53288 11.375 5.82366 11.375H17.7598C18.0506 11.375 18.2917 11.6583 18.2917 12C18.2917 12.3417 18.0506 12.625 17.7598 12.625Z" fill="white"/>
</svg>
